<?xml version="1.0" standalone="no"?><!DOCTYPE svg PUBLIC "-//W3C//DTD SVG 1.1//EN" "http://www.w3.org/Graphics/SVG/1.1/DTD/svg11.dtd"><svg t="1490876596710" class="icon" style="" viewBox="0 0 1024 1024" version="1.1" xmlns="http://www.w3.org/2000/svg" p-id="10369" xmlns:xlink="http://www.w3.org/1999/xlink" width="21" height="21"><defs><style type="text/css"></style></defs><path d="M510.114047 959.51636c-119.43416 0-231.730759-46.511313-316.15659-130.903376C109.49888 744.107335 63.011102 631.821993 63.032592 512.345877c0-119.462812 46.520523-231.770667 130.992403-316.233338 84.438111-84.432994 196.723453-130.945331 316.166823-130.945331 119.485325 0 231.760434 46.512337 316.241524 130.938168 174.336584 174.404122 174.315094 458.091206 0 632.419604C741.931786 912.970254 629.599372 959.51636 510.114047 959.51636L510.114047 959.51636 510.114047 959.51636zM510.191818 123.449613c-103.890138 0-201.529923 40.435944-274.974655 113.867374-73.457012 73.423243-113.914446 171.117262-113.914446 275.02889-0.01228 103.923908 40.414455 201.605647 113.846908 275.054473C308.586171 860.798011 406.254607 901.280004 510.114047 901.280004c103.923908 0 201.626113-40.502459 275.105638-113.968681 151.61407-151.59872 151.61407-398.341381 0-549.990243C711.753463 163.884534 614.094236 123.449613 510.191818 123.449613L510.191818 123.449613 510.191818 123.449613zM351.291808 634.386398c0 0 52.390207 83.749426 158.810982 83.749426s176.207188-83.749426 176.207188-83.749426 39.554878-0.132006 39.545668 41.872666c0 0-68.597331 97.706299-215.753879 97.706299-147.170874 0-195.060581-97.706299-195.060581-97.706299s-1.450025-41.872666 36.253692-41.872666L351.291808 634.386398zM380.168486 368.556007c-30.15581 0-54.763255 24.52558-54.763255 54.770418 0 30.203906 24.606421 54.737672 54.763255 54.737672 30.29191 0 54.763255-24.533766 54.763255-54.737672C434.930717 393.081587 410.460396 368.556007 380.168486 368.556007L380.168486 368.556007 380.168486 368.556007zM660.746766 368.556007c-30.199813 0-54.724369 24.52558-54.724369 54.770418 0 30.203906 24.52558 54.737672 54.724369 54.737672 30.258141 0 54.770418-24.533766 54.770418-54.737672C715.517183 393.081587 691.004907 368.556007 660.746766 368.556007L660.746766 368.556007 660.746766 368.556007zM660.746766 368.556007" p-id="10370" fill="#d7e0e6"></path></svg>