<?xml version="1.0" standalone="no"?><!DOCTYPE svg PUBLIC "-//W3C//DTD SVG 1.1//EN" "http://www.w3.org/Graphics/SVG/1.1/DTD/svg11.dtd"><svg t="1490870361903" class="icon" style="" viewBox="0 0 1024 1024" version="1.1" xmlns="http://www.w3.org/2000/svg" p-id="5222" xmlns:xlink="http://www.w3.org/1999/xlink" width="21" height="21"><defs><style type="text/css"></style></defs><path d="M798.589952 500.253696c-1.102848-2.282496-2.577408-4.4288-4.46976-6.322176L354.883584 54.695936c-9.068544-9.068544-23.771136-9.068544-32.83968 0l-69.784576 69.784576c-9.068544 9.068544-9.068544 23.771136 0 32.83968L605.289472 510.35136 252.258304 863.382528c-9.068544 9.068544-9.068544 23.77216 0 32.840704l69.784576 69.784576c9.068544 9.068544 23.771136 9.06752 32.83968-0.001024l369.44896-369.447936c0.001024-0.001024 0.001024-0.002048 0.002048-0.002048l69.784576-69.784576c0.567296-0.567296 1.097728-1.156096 1.594368-1.764352C801.496064 517.91872 802.439168 508.218368 798.589952 500.253696z" p-id="5223" fill="#000000"></path></svg>